<svg id="visual" viewBox="0 0 1080 1920" width="1080" height="1920" xmlns="http://www.w3.org/2000/svg" xmlns:xlink="http://www.w3.org/1999/xlink" version="1.1"><rect x="0" y="0" width="1080" height="1920" fill="#202020"></rect><defs><linearGradient id="grad1_0" x1="0%" y1="0%" x2="100%" y2="100%"><stop offset="30%" stop-color="#202020" stop-opacity="1"></stop><stop offset="70%" stop-color="#202020" stop-opacity="1"></stop></linearGradient></defs><defs><linearGradient id="grad2_0" x1="0%" y1="0%" x2="100%" y2="100%"><stop offset="30%" stop-color="#202020" stop-opacity="1"></stop><stop offset="70%" stop-color="#202020" stop-opacity="1"></stop></linearGradient></defs><g transform="translate(1080, 0)"><path d="M0 594C-77.8 585.7 -155.7 577.4 -227.3 548.8C-299 520.1 -364.5 471.1 -412.2 412.2C-460 353.4 -490 284.7 -517.4 214.3C-544.7 144 -569.4 72 -594 0L0 0Z" fill="#1c1c1c"></path></g><g transform="translate(0, 1920)"><path d="M0 -594C79 -589.1 158.1 -584.1 227.3 -548.8C296.5 -513.4 355.9 -447.7 378.3 -378.3C400.7 -308.9 386 -235.9 415.7 -172.2C445.5 -108.5 519.8 -54.3 594 0L0 0Z" fill="#1c1c1c"></path></g></svg>